<svg xmlns="http://www.w3.org/2000/svg" width="111.875" height="93.887" viewBox="26.546 42.579 111.875 93.887"><path d="M86.144 116.105c-4.3 4.16-8.53 8.285-12.761 12.411-1.468 1.433-3.111 2.237-5.244 2.132-1.433-.069-2.237-.699-2.692-2.063-3.216-9.998-6.502-19.997-9.719-30.031-.314-.979-.769-1.434-1.748-1.748a1692.947 1692.947 0 0 1-22.76-7.096c-1.154-.385-2.342-.839-3.356-1.539-1.573-1.049-1.783-2.762-.384-4.021 1.293-1.154 2.832-2.132 4.44-2.762 9.299-3.671 18.634-7.237 27.969-10.838 23.668-9.125 47.336-18.285 71.005-27.41 4.511-1.748 7.972.699 7.481 5.594-.314 3.112-1.118 6.188-1.748 9.265-5.139 24.263-10.278 48.561-15.452 72.824-1.224 5.768-5.279 7.271-9.999 3.775-7.936-5.838-15.872-11.712-23.809-17.586a19.268 19.268 0 0 0-1.223-.907zm-17.831 7.377c.105-.035.175-.035.28-.07.035-.244.105-.455.14-.664.524-5.489 1.049-11.013 1.503-16.502.105-1.224.524-2.098 1.434-2.937 7.307-6.538 14.614-13.146 21.886-19.718 8.075-7.272 16.151-14.544 24.192-21.851.49-.455.699-1.224 1.049-1.853-.769-.07-1.572-.385-2.271-.21-.944.245-1.818.804-2.658 1.329-17.795 11.223-35.625 22.445-53.42 33.667-1.014.63-1.188 1.154-.804 2.273 1.328 3.775 2.517 7.586 3.741 11.396 1.642 5.037 3.285 10.105 4.928 15.14z"/></svg>