<?xml version="1.0" encoding="utf-8"?>
<!-- Generator: Adobe Illustrator 16.0.0, SVG Export Plug-In . SVG Version: 6.00 Build 0)  -->
<!DOCTYPE svg PUBLIC "-//W3C//DTD SVG 1.1//EN" "http://www.w3.org/Graphics/SVG/1.1/DTD/svg11.dtd">
<svg version="1.1" id="Layer_1" xmlns="http://www.w3.org/2000/svg" xmlns:xlink="http://www.w3.org/1999/xlink" x="0px" y="0px"
	 width="111.875px" height="93.887px" viewBox="26.546 42.579 111.875 93.887"
	 enable-background="new 26.546 42.579 111.875 93.887" xml:space="preserve">
<circle id="ellipse" display="none" fill="#0088CC" cx="89.5" cy="89.5" r="89.5"/>
<path id="logo" d="M86.144,116.105c-4.3,4.16-8.53,8.285-12.761,12.411c-1.468,1.433-3.111,2.237-5.244,2.132
	c-1.433-0.069-2.237-0.699-2.692-2.063c-3.216-9.998-6.502-19.997-9.719-30.031c-0.314-0.979-0.769-1.434-1.748-1.748
	C46.393,94.5,38.771,92.122,31.22,89.71c-1.154-0.385-2.342-0.839-3.356-1.539c-1.573-1.049-1.783-2.762-0.384-4.021
	c1.293-1.154,2.832-2.132,4.44-2.762c9.299-3.671,18.634-7.237,27.969-10.838c23.668-9.125,47.336-18.285,71.005-27.41
	c4.511-1.748,7.972,0.699,7.481,5.594c-0.314,3.112-1.118,6.188-1.748,9.265c-5.139,24.263-10.278,48.561-15.452,72.824
	c-1.224,5.768-5.279,7.271-9.999,3.775c-7.936-5.838-15.872-11.712-23.809-17.586C86.983,116.699,86.598,116.42,86.144,116.105z
	 M68.313,123.482c0.105-0.035,0.175-0.035,0.28-0.07c0.035-0.244,0.105-0.455,0.14-0.664c0.524-5.489,1.049-11.013,1.503-16.502
	c0.105-1.224,0.524-2.098,1.434-2.937c7.307-6.538,14.614-13.146,21.886-19.718c8.075-7.272,16.151-14.544,24.192-21.851
	c0.49-0.455,0.699-1.224,1.049-1.853c-0.769-0.07-1.572-0.385-2.271-0.21c-0.944,0.245-1.818,0.804-2.658,1.329
	c-17.795,11.223-35.625,22.445-53.42,33.667c-1.014,0.63-1.188,1.154-0.804,2.273c1.328,3.775,2.517,7.586,3.741,11.396
	C65.027,113.379,66.67,118.447,68.313,123.482z"/>
</svg>
